<?xml version="1.0" encoding="UTF-8" standalone="no"?>
<!-- Generator: Adobe Illustrator 16.0.3, SVG Export Plug-In . SVG Version: 6.00 Build 0)  -->

<svg
   xmlns:dc="http://purl.org/dc/elements/1.1/"
   xmlns:cc="http://creativecommons.org/ns#"
   xmlns:rdf="http://www.w3.org/1999/02/22-rdf-syntax-ns#"
   xmlns:svg="http://www.w3.org/2000/svg"
   xmlns="http://www.w3.org/2000/svg"
   xmlns:sodipodi="http://sodipodi.sourceforge.net/DTD/sodipodi-0.dtd"
   xmlns:inkscape="http://www.inkscape.org/namespaces/inkscape"
   version="1.1"
   id="Vrstva_1"
   x="0px"
   y="0px"
   width="50"
   height="50"
   viewBox="0 0 50 50"
   enable-background="new 0 0 55 55"
   xml:space="preserve"
   sodipodi:docname="Logo Instagram 01.svg"
   inkscape:version="0.92.4 (5da689c313, 2019-01-14)"><metadata
   id="metadata15"><rdf:RDF><cc:Work
       rdf:about=""><dc:format>image/svg+xml</dc:format><dc:type
         rdf:resource="http://purl.org/dc/dcmitype/StillImage" /><dc:title></dc:title></cc:Work></rdf:RDF></metadata><defs
   id="defs13" /><sodipodi:namedview
   pagecolor="#ffffff"
   bordercolor="#666666"
   borderopacity="1"
   objecttolerance="10"
   gridtolerance="10"
   guidetolerance="10"
   inkscape:pageopacity="0"
   inkscape:pageshadow="2"
   inkscape:window-width="1920"
   inkscape:window-height="1017"
   id="namedview11"
   showgrid="false"
   inkscape:zoom="4.2909091"
   inkscape:cx="27.5"
   inkscape:cy="27.5"
   inkscape:window-x="-8"
   inkscape:window-y="-8"
   inkscape:window-maximized="1"
   inkscape:current-layer="Vrstva_1" />

<g
   id="g925"
   transform="matrix(0.98039216,0,0,0.98039216,-1.9607844,-1.9607844)">
	<rect
   id="rect919"
   height="51"
   width="51"
   y="2"
   x="2"
   style="fill:#5a4234" />
	<g
   id="g923">
		<path
   id="path921"
   d="M 34.596,15.934 H 20.402 c -2.465,0 -4.469,2.004 -4.469,4.471 v 4.723 9.471 c 0,2.465 2.004,4.471 4.469,4.471 h 14.193 c 2.467,0 4.471,-2.006 4.471,-4.471 v -9.471 -4.723 c 0,-2.467 -2.003,-4.471 -4.47,-4.471 z m 1.283,2.667 0.512,-0.003 v 0.511 3.409 l -3.908,0.014 -0.014,-3.92 z m -11.68,6.526 c 0.74,-1.025 1.941,-1.697 3.301,-1.697 1.36,0 2.561,0.672 3.301,1.697 0.482,0.668 0.771,1.488 0.771,2.373 0,2.244 -1.828,4.071 -4.072,4.071 -2.244,0 -4.072,-1.827 -4.072,-4.071 0,-0.885 0.289,-1.705 0.771,-2.373 z m 12.615,9.471 c 0,1.223 -0.996,2.217 -2.219,2.217 H 20.402 c -1.223,0 -2.217,-0.994 -2.217,-2.217 v -9.471 h 3.455 c -0.301,0.732 -0.467,1.535 -0.467,2.373 0,3.488 2.838,6.326 6.326,6.326 3.488,0 6.326,-2.838 6.326,-6.326 0,-0.838 -0.168,-1.641 -0.467,-2.373 h 3.455 v 9.471 z"
   inkscape:connector-curvature="0"
   style="fill:#ffffff" />
	</g>
</g></svg>