<?xml version="1.0" encoding="UTF-8" standalone="no"?>
<!-- Generator: Adobe Illustrator 16.0.3, SVG Export Plug-In . SVG Version: 6.00 Build 0)  -->

<svg
   xmlns:dc="http://purl.org/dc/elements/1.1/"
   xmlns:cc="http://creativecommons.org/ns#"
   xmlns:rdf="http://www.w3.org/1999/02/22-rdf-syntax-ns#"
   xmlns:svg="http://www.w3.org/2000/svg"
   xmlns="http://www.w3.org/2000/svg"
   xmlns:sodipodi="http://sodipodi.sourceforge.net/DTD/sodipodi-0.dtd"
   xmlns:inkscape="http://www.inkscape.org/namespaces/inkscape"
   version="1.1"
   id="Vrstva_1"
   x="0px"
   y="0px"
   width="50"
   height="50"
   viewBox="0 0 50 50"
   enable-background="new 0 0 55 55"
   xml:space="preserve"
   sodipodi:docname="document.svg"
   inkscape:version="0.92.4 (5da689c313, 2019-01-14)"><metadata
   id="metadata15"><rdf:RDF><cc:Work
       rdf:about=""><dc:format>image/svg+xml</dc:format><dc:type
         rdf:resource="http://purl.org/dc/dcmitype/StillImage" /><dc:title></dc:title></cc:Work></rdf:RDF></metadata><defs
   id="defs13" /><sodipodi:namedview
   pagecolor="#ffffff"
   bordercolor="#666666"
   borderopacity="1"
   objecttolerance="10"
   gridtolerance="10"
   guidetolerance="10"
   inkscape:pageopacity="0"
   inkscape:pageshadow="2"
   inkscape:window-width="1920"
   inkscape:window-height="1017"
   id="namedview11"
   showgrid="false"
   inkscape:zoom="5"
   inkscape:cx="36.652459"
   inkscape:cy="20.045458"
   inkscape:window-x="-8"
   inkscape:window-y="-8"
   inkscape:window-maximized="1"
   inkscape:current-layer="g4617" />

<g
   style="display:block"
   id="g4617"
   transform="matrix(1.1904762,0,0,1.1904762,-4.1666669,-4.2761907)"><g
     id="g4643"><path
       style="fill:#faa700;fill-opacity:1"
       inkscape:connector-curvature="0"
       d="M 40.22,14.512 27.89,4.522 c -0.72,-0.6 -1.65,-0.93 -2.61,-0.93 H 11.36 c -2.28,0 -4.11,1.83 -4.11,4.11 v 33.78 c 0,2.28 1.86,4.11 4.11,4.11 h 26.28 c 2.28,0 4.11,-1.83 4.11,-4.11 v -23.76 c 0,-1.23 -0.57,-2.43 -1.53,-3.21 z m -13.11,-6.81 10.38,9.06 c 0.42,0.36 0.18,1.05 -0.39,1.05 h -8.88 c -0.6,0 -1.11,-0.48 -1.11,-1.11 z m 8.85,33.75 H 13.01 c -0.69,0 -1.26,-0.57 -1.26,-1.29 v -31.2 c 0,-0.69 0.57,-1.26 1.26,-1.26 h 10.35 v 10.14 c 0,2.07 1.68,3.75 3.75,3.75 h 10.11 v 18.6 c 0,0.69 -0.57,1.26 -1.26,1.26 z"
       id="path4603" /><path
       style="stroke:#faa700;stroke-width:1.824;stroke-linecap:round;stroke-linejoin:round;fill:#faa700;fill-opacity:1;opacity:1;stroke-opacity:1"
       inkscape:connector-curvature="0"
       d="m 17.75,27.232 h 13.5 m -13.5,7.17 h 13.5"
       id="path4605" /></g></g></svg>