<?xml version="1.0" encoding="UTF-8" standalone="no"?>
<!-- Generator: Adobe Illustrator 16.0.3, SVG Export Plug-In . SVG Version: 6.00 Build 0)  -->

<svg
   xmlns:dc="http://purl.org/dc/elements/1.1/"
   xmlns:cc="http://creativecommons.org/ns#"
   xmlns:rdf="http://www.w3.org/1999/02/22-rdf-syntax-ns#"
   xmlns:svg="http://www.w3.org/2000/svg"
   xmlns="http://www.w3.org/2000/svg"
   xmlns:sodipodi="http://sodipodi.sourceforge.net/DTD/sodipodi-0.dtd"
   xmlns:inkscape="http://www.inkscape.org/namespaces/inkscape"
   version="1.1"
   id="Vrstva_1"
   x="0px"
   y="0px"
   width="50"
   height="50"
   viewBox="0 0 50 50"
   enable-background="new 0 0 55 55"
   xml:space="preserve"
   sodipodi:docname="sparkles.svg"
   inkscape:version="0.92.4 (5da689c313, 2019-01-14)"><metadata
   id="metadata15"><rdf:RDF><cc:Work
       rdf:about=""><dc:format>image/svg+xml</dc:format><dc:type
         rdf:resource="http://purl.org/dc/dcmitype/StillImage" /><dc:title></dc:title></cc:Work></rdf:RDF></metadata><defs
   id="defs13" /><sodipodi:namedview
   pagecolor="#ffffff"
   bordercolor="#666666"
   borderopacity="1"
   objecttolerance="10"
   gridtolerance="10"
   guidetolerance="10"
   inkscape:pageopacity="0"
   inkscape:pageshadow="2"
   inkscape:window-width="1920"
   inkscape:window-height="1017"
   id="namedview11"
   showgrid="false"
   inkscape:zoom="4.2909091"
   inkscape:cx="37.672251"
   inkscape:cy="18.177966"
   inkscape:window-x="-8"
   inkscape:window-y="-8"
   inkscape:window-maximized="1"
   inkscape:current-layer="Vrstva_1" />

<g
   style="display:block;fill:#9d34da;fill-opacity:1"
   id="g4587"
   transform="matrix(2.1653234,0,0,2.1653234,-0.94746114,0.4039965)"><g
     id="g4574"
     style="fill:#9d34da;fill-opacity:1"><path
       id="path4570"
       d="m 10.4563,5.72844 c 0.455,-0.1575 0.455,-0.4375 0,-0.6125 l -2.46749,-0.945 c -0.4375,-0.1575 -0.945,-0.665 -1.12,-1.12 l -0.945,-2.467503 c -0.1575,-0.454999 -0.4375,-0.454999 -0.6125,0 l -0.945,2.467503 c -0.1575,0.4375 -0.665,0.945 -1.12,1.12 l -2.467499,0.945 c -0.455,0.1575 -0.455,0.4375 0,0.6125 l 2.467499,0.945 c 0.4375,0.1575 0.945,0.665 1.12,1.12 l 0.945,2.46746 c 0.1575,0.455 0.4375,0.455 0.6125,0 l 0.945,-2.46746 c 0.1575,-0.4375 0.665,-0.945 1.12,-1.12 z"
       inkscape:connector-curvature="0"
       style="fill:#9d34da;fill-opacity:1" /><path
       id="path4572"
       d="m 22.4788,14.3734 c 1.4,-0.35 1.4,-0.9275 0,-1.2775 l -3.0975,-0.77 c -1.4,-0.35 -2.835,-1.785 -3.185,-3.18499 l -0.77,-3.0975 c -0.35,-1.4 -0.9275,-1.4 -1.2775,0 l -0.77,3.0975 c -0.35,1.39999 -1.785,2.83499 -3.185,3.18499 l -3.09749,0.77 c -1.4,0.35 -1.4,0.9275 0,1.2775 l 3.09749,0.77 c 1.4,0.35 2.835,1.785 3.185,3.185 l 0.77,3.0975 c 0.35,1.4 0.9275,1.4 1.2775,0 l 0.77,-3.0975 c 0.35,-1.4 1.785,-2.835 3.185,-3.185 z"
       inkscape:connector-curvature="0"
       style="fill:#9d34da;fill-opacity:1" /></g></g></svg>