<?xml version="1.0" encoding="UTF-8" standalone="no"?>
<!-- Generator: Adobe Illustrator 16.0.3, SVG Export Plug-In . SVG Version: 6.00 Build 0)  -->

<svg
   xmlns:dc="http://purl.org/dc/elements/1.1/"
   xmlns:cc="http://creativecommons.org/ns#"
   xmlns:rdf="http://www.w3.org/1999/02/22-rdf-syntax-ns#"
   xmlns:svg="http://www.w3.org/2000/svg"
   xmlns="http://www.w3.org/2000/svg"
   xmlns:sodipodi="http://sodipodi.sourceforge.net/DTD/sodipodi-0.dtd"
   xmlns:inkscape="http://www.inkscape.org/namespaces/inkscape"
   version="1.1"
   id="Vrstva_1"
   x="0px"
   y="0px"
   width="50"
   height="50"
   viewBox="0 0 50 50"
   enable-background="new 0 0 55 55"
   xml:space="preserve"
   sodipodi:docname="book.svg"
   inkscape:version="0.92.4 (5da689c313, 2019-01-14)"><metadata
   id="metadata15"><rdf:RDF><cc:Work
       rdf:about=""><dc:format>image/svg+xml</dc:format><dc:type
         rdf:resource="http://purl.org/dc/dcmitype/StillImage" /><dc:title></dc:title></cc:Work></rdf:RDF></metadata><defs
   id="defs13" /><sodipodi:namedview
   pagecolor="#ffffff"
   bordercolor="#666666"
   borderopacity="1"
   objecttolerance="10"
   gridtolerance="10"
   guidetolerance="10"
   inkscape:pageopacity="0"
   inkscape:pageshadow="2"
   inkscape:window-width="1920"
   inkscape:window-height="1017"
   id="namedview11"
   showgrid="false"
   inkscape:zoom="5"
   inkscape:cx="36.652459"
   inkscape:cy="20.045458"
   inkscape:window-x="-8"
   inkscape:window-y="-8"
   inkscape:window-maximized="1"
   inkscape:current-layer="g4617" />

<g
   style="display:block"
   id="g4617"
   transform="matrix(1.1904762,0,0,1.1904762,-4.1666669,-4.2761907)"><g
     style="display:block;fill:#ea4e43;fill-opacity:1;stroke:none;stroke-opacity:1"
     id="g4659"
     transform="matrix(0.88888888,0,0,0.88888888,3.1533335,2.9120002)"><path
       id="path4645"
       d="M 21,40.86 H 6.09 c -1.08,0 -1.98,-0.9 -1.98,-1.98 V 20.22 c 0,-1.17 0.6,-1.83 1.74,-1.83 h 0.9 V 15.03 H 4.89 c -2.49,0 -4.5,2.01 -4.5,4.5 v 20.25 c 0,2.49 2.01,4.5 4.5,4.5 H 21 Z M 43.14,15 h -1.86 v 3.36 h 0.99 c 1.08,0 1.62,0.63 1.62,1.62 v 18.93 c 0,1.08 -0.87,1.98 -1.98,1.98 H 27 v 3.36 h 16.14 c 2.49,0 4.5,-2.01 4.5,-4.5 V 19.5 c 0,-2.49 -2.01,-4.5 -4.5,-4.5 z"
       inkscape:connector-curvature="0"
       style="fill:#ea4e43;fill-opacity:1;stroke:none;stroke-opacity:1" /><path
       id="path4647"
       d="M 39.39,4.5 C 34.2,5.19 27.99,7.23 24.03,9.66 20.04,7.23 13.83,5.19 8.67,4.5 v 30.75 c 4.26,0.51 8.67,1.5 13.14,3.24 l 2.25,0.99 2.25,-0.99 c 4.47,-1.74 8.88,-2.76 13.14,-3.24 V 4.5 Z M 13.14,31.89 V 9.69 c 3.21,0.57 6.93,2.01 8.64,3.39 V 34.32 C 19.29,33.3 15.81,32.37 13.14,31.89 Z m 21.75,0 c -2.64,0.48 -6.15,1.41 -8.64,2.43 V 13.08 c 1.68,-1.41 5.43,-2.82 8.64,-3.39 z"
       inkscape:connector-curvature="0"
       style="fill:#ea4e43;fill-opacity:1;stroke:none;stroke-opacity:1" /></g></g></svg>