<?xml version="1.0" encoding="UTF-8" standalone="no"?>
<!-- Generator: Adobe Illustrator 16.0.3, SVG Export Plug-In . SVG Version: 6.00 Build 0)  -->

<svg
   xmlns:dc="http://purl.org/dc/elements/1.1/"
   xmlns:cc="http://creativecommons.org/ns#"
   xmlns:rdf="http://www.w3.org/1999/02/22-rdf-syntax-ns#"
   xmlns:svg="http://www.w3.org/2000/svg"
   xmlns="http://www.w3.org/2000/svg"
   xmlns:sodipodi="http://sodipodi.sourceforge.net/DTD/sodipodi-0.dtd"
   xmlns:inkscape="http://www.inkscape.org/namespaces/inkscape"
   version="1.1"
   id="Vrstva_1"
   x="0px"
   y="0px"
   width="50"
   height="50"
   viewBox="0 0 50 50"
   enable-background="new 0 0 55 55"
   xml:space="preserve"
   sodipodi:docname="calendar.svg"
   inkscape:version="0.92.4 (5da689c313, 2019-01-14)"><metadata
   id="metadata15"><rdf:RDF><cc:Work
       rdf:about=""><dc:format>image/svg+xml</dc:format><dc:type
         rdf:resource="http://purl.org/dc/dcmitype/StillImage" /><dc:title></dc:title></cc:Work></rdf:RDF></metadata><defs
   id="defs13" /><sodipodi:namedview
   pagecolor="#ffffff"
   bordercolor="#666666"
   borderopacity="1"
   objecttolerance="10"
   gridtolerance="10"
   guidetolerance="10"
   inkscape:pageopacity="0"
   inkscape:pageshadow="2"
   inkscape:window-width="1920"
   inkscape:window-height="1017"
   id="namedview11"
   showgrid="false"
   inkscape:zoom="5"
   inkscape:cx="-12"
   inkscape:cy="26"
   inkscape:window-x="-8"
   inkscape:window-y="-8"
   inkscape:window-maximized="1"
   inkscape:current-layer="g4617" />

<g
   style="display:block"
   id="g4617"
   transform="matrix(1.1904762,0,0,1.1904762,-4.1666669,-4.2761907)"><g
     style="fill:#f8792a;fill-opacity:1"
     id="g4708"
     transform="matrix(1.05,0,0,1.05,-0.7,-0.60800001)"><g
       id="g4692"
       style="fill:#f8792a;fill-opacity:1"><path
         id="path4682"
         d="M 37.3284,4 H 10.6674 C 6.98444,4 4,6.98444 4,10.6674 V 37.3326 C 4,41.0156 6.98444,44 10.6674,44 H 37.3326 C 41.0154,44 44,41.0156 44,37.3326 V 10.6674 C 44,6.98444 41.0154,4 37.3326,4 Z m -1.05,35.864 H 11.7215 c -1.98544,0 -3.59408,-1.6086 -3.59408,-3.594 V 14.9684 H 39.8726 v 21.3058 c 0,1.9854 -1.6088,3.594 -3.5942,3.594 z"
         inkscape:connector-curvature="0"
         style="fill:#f8792a;fill-opacity:1" /><g
         id="g4690"
         class="NotionCalendarIcon_dates__QiFn_"
         style="fill:#f8792a;fill-opacity:1"><g
           id="g4688"
           class="NotionCalendarIcon_current__Iwe8x"
           style="fill:#f8792a;fill-opacity:1"><path
             id="path4684"
             d="m 19.1302,24.3266 c 0,-1.5058 -0.8568,-2.4924 -2.207,-2.4924 -1.2981,0 -1.7395,0.9346 -1.7395,2.4146 v 0.2596 c -0.1558,0.026 -0.2856,0.052 -0.4414,0.052 -0.9347,0 -1.6098,-0.779 -1.6098,-2.1032 0,-2.0251 1.8694,-3.8166 5.4265,-3.8166 3.1676,0 5.1927,1.6098 5.1927,4.2322 0,1.9732 -1.6876,3.2714 -3.3493,3.6088 3.1157,0.3376 4.4138,2.1032 4.4138,4.2582 0,3.6868 -2.7781,5.6082 -7.0621,5.6082 h -0.1039 c -3.2195,0 -5.4783,-1.3242 -5.4783,-3.3754 0,-1.1684 0.8828,-2.103 2.2069,-2.103 0.1038,0 0.2077,0.026 0.3116,0.026 0.2596,2.103 1.7136,2.9598 3.1675,2.9598 1.4021,0 2.3887,-0.8568 2.3887,-2.155 v -0.0518 c 0,-2.0252 -1.7396,-2.233 -4.3619,-2.4926 l -0.4154,-2.4406 c 2.4406,-0.2856 3.6609,-0.9866 3.6609,-2.3888 z"
             inkscape:connector-curvature="0"
             style="fill:#f8792a;fill-opacity:1" /><path
             id="path4686"
             d="M 29.0308,33.6478 V 21.5486 c -2.5964,0.5712 -3.1676,-0.5712 -2.882,-1.7137 1.558,-0.2596 5.6082,-1.1943 7.1402,-1.6357 v 15.5524 l 2.83,0.5712 c 0,1.0126 -0.5972,1.6098 -1.6616,1.6098 -0.8828,0 -2.934,-0.052 -3.9206,-0.052 -1.5318,0 -4.336,0.052 -4.336,0.052 -0.0778,-0.2078 -0.1038,-0.4154 -0.1038,-0.5972 0,-0.4934 0.2076,-0.9866 0.8828,-1.1684 z"
             inkscape:connector-curvature="0"
             style="fill:#f8792a;fill-opacity:1" /></g></g></g></g></g></svg>