<?xml version="1.0" encoding="UTF-8" standalone="no"?>
<!-- Generator: Adobe Illustrator 16.0.3, SVG Export Plug-In . SVG Version: 6.00 Build 0)  -->

<svg
   xmlns:dc="http://purl.org/dc/elements/1.1/"
   xmlns:cc="http://creativecommons.org/ns#"
   xmlns:rdf="http://www.w3.org/1999/02/22-rdf-syntax-ns#"
   xmlns:svg="http://www.w3.org/2000/svg"
   xmlns="http://www.w3.org/2000/svg"
   xmlns:sodipodi="http://sodipodi.sourceforge.net/DTD/sodipodi-0.dtd"
   xmlns:inkscape="http://www.inkscape.org/namespaces/inkscape"
   version="1.1"
   id="Vrstva_1"
   x="0px"
   y="0px"
   width="145"
   height="50"
   viewBox="0 0 145 50"
   enable-background="new 0 0 55 55"
   xml:space="preserve"
   sodipodi:docname="notion.svg"
   inkscape:version="0.92.4 (5da689c313, 2019-01-14)"><metadata
   id="metadata15"><rdf:RDF><cc:Work
       rdf:about=""><dc:format>image/svg+xml</dc:format><dc:type
         rdf:resource="http://purl.org/dc/dcmitype/StillImage" /><dc:title></dc:title></cc:Work></rdf:RDF></metadata><defs
   id="defs13" /><sodipodi:namedview
   pagecolor="#ffffff"
   bordercolor="#666666"
   borderopacity="1"
   objecttolerance="10"
   gridtolerance="10"
   guidetolerance="10"
   inkscape:pageopacity="0"
   inkscape:pageshadow="2"
   inkscape:window-width="1920"
   inkscape:window-height="1017"
   id="namedview11"
   showgrid="false"
   inkscape:zoom="4.2909091"
   inkscape:cx="-11.302966"
   inkscape:cy="18.177966"
   inkscape:window-x="-8"
   inkscape:window-y="-8"
   inkscape:window-maximized="1"
   inkscape:current-layer="Vrstva_1" />

<g
   style="fill:none"
   id="g4568"
   transform="matrix(1.6666474,0,0,1.6666474,0.4649994,3.3467892e-4)"><path
     id="path4551"
     d="m 1.805,1.294 16.6,-1.226 c 2.039,-0.175 2.563,-0.057 3.845,0.875 l 5.299,3.733 c 0.874,0.642 1.165,0.817 1.165,1.516 v 20.473 c 0,1.283 -0.466,2.042 -2.097,2.158 L 7.34,29.99 C 6.116,30.048 5.533,29.873 4.892,29.056 L 0.99,23.982 C 0.29,23.048 0,22.349 0,21.532 V 3.334 C 0,2.285 0.466,1.41 1.805,1.294 Z"
     inkscape:connector-curvature="0"
     style="fill:#ffffff" /><path
     id="path4553"
     d="M 18.405,0.068 1.805,1.294 C 0.466,1.41 0,2.285 0,3.334 v 18.198 c 0,0.817 0.29,1.516 0.99,2.45 l 3.902,5.074 c 0.641,0.817 1.224,0.992 2.448,0.934 l 19.277,-1.167 c 1.63,-0.116 2.097,-0.875 2.097,-2.158 V 6.192 c 0,-0.663 -0.262,-0.854 -1.033,-1.42 A 85.473,85.473 0 0 1 27.548,4.676 L 22.25,0.943 C 20.968,0.011 20.444,-0.107 18.405,0.068 Z M 7.776,5.857 C 6.202,5.963 5.845,5.987 4.951,5.26 L 2.678,3.452 C 2.447,3.218 2.563,2.926 3.145,2.868 L 19.103,1.702 c 1.34,-0.117 2.038,0.35 2.562,0.758 l 2.737,1.983 c 0.117,0.059 0.408,0.408 0.058,0.408 L 7.98,5.843 Z M 5.941,26.49 V 9.11 c 0,-0.759 0.233,-1.109 0.931,-1.168 L 25.8,6.834 c 0.642,-0.058 0.932,0.35 0.932,1.108 v 17.264 c 0,0.759 -0.117,1.401 -1.165,1.459 L 7.454,27.715 C 6.406,27.773 5.941,27.424 5.941,26.49 Z m 17.88,-16.448 c 0.116,0.525 0,1.05 -0.525,1.11 l -0.873,0.173 v 12.832 c -0.758,0.408 -1.456,0.641 -2.039,0.641 -0.932,0 -1.165,-0.292 -1.863,-1.166 L 12.812,14.65 v 8.69 l 1.806,0.409 c 0,0 0,1.05 -1.457,1.05 l -4.017,0.233 c -0.117,-0.234 0,-0.817 0.407,-0.933 L 10.6,23.808 V 12.318 L 9.144,12.2 c -0.117,-0.525 0.174,-1.283 0.99,-1.342 l 4.31,-0.29 5.94,9.098 V 11.617 L 18.87,11.443 c -0.117,-0.643 0.349,-1.11 0.931,-1.167 z"
     inkscape:connector-curvature="0"
     style="clip-rule:evenodd;fill:#000000;fill-rule:evenodd" /><path
     id="path4555"
     d="m 41.434,21.251 v -7.91 h 0.137 l 5.704,7.91 h 1.796 V 9.627 h -1.997 v 7.902 H 46.937 L 41.233,9.627 H 39.43 V 21.25 h 2.005 z m 13.281,0.178 c 2.635,0 4.238,-1.724 4.238,-4.584 0,-2.852 -1.611,-4.584 -4.238,-4.584 -2.618,0 -4.237,1.74 -4.237,4.584 0,2.86 1.595,4.584 4.237,4.584 z m 0,-1.676 c -1.393,0 -2.19,-1.063 -2.19,-2.908 0,-1.837 0.797,-2.908 2.19,-2.908 1.386,0 2.183,1.071 2.183,2.908 0,1.845 -0.789,2.908 -2.183,2.908 z m 6.063,-9.473 v 2.215 h -1.393 v 1.595 h 1.393 v 4.809 c 0,1.708 0.806,2.393 2.828,2.393 0.386,0 0.757,-0.04 1.047,-0.097 v -1.563 c -0.242,0.024 -0.395,0.04 -0.677,0.04 -0.837,0 -1.208,-0.386 -1.208,-1.256 V 14.09 h 1.885 v -1.595 h -1.885 v -2.216 h -1.99 z m 5.072,10.971 h 1.99 v -8.813 h -1.99 z m 0.991,-10.27 c 0.66,0 1.192,-0.533 1.192,-1.201 0,-0.669 -0.531,-1.209 -1.192,-1.209 -0.652,0 -1.192,0.54 -1.192,1.209 0,0.668 0.54,1.2 1.192,1.2 z m 6.458,10.448 c 2.634,0 4.237,-1.724 4.237,-4.584 0,-2.852 -1.611,-4.584 -4.237,-4.584 -2.619,0 -4.238,1.74 -4.238,4.584 0,2.86 1.595,4.584 4.238,4.584 z m 0,-1.676 c -1.394,0 -2.192,-1.063 -2.192,-2.908 0,-1.837 0.798,-2.908 2.192,-2.908 1.385,0 2.183,1.071 2.183,2.908 0,1.845 -0.79,2.908 -2.183,2.908 z m 5.426,1.498 h 1.998 V 16.12 c 0,-1.297 0.75,-2.119 1.941,-2.119 1.217,0 1.78,0.677 1.78,2.022 v 5.228 h 1.999 v -5.703 c 0,-2.103 -1.072,-3.287 -3.037,-3.287 -1.314,0 -2.2,0.604 -2.619,1.587 H 80.65 v -1.41 h -1.925 z"
     class="wordmark_fill__RZFeq"
     inkscape:connector-curvature="0"
     style="fill:#000000" /></g></svg>