<?xml version="1.0" encoding="UTF-8" standalone="no"?>
<!-- Generator: Adobe Illustrator 16.0.3, SVG Export Plug-In . SVG Version: 6.00 Build 0)  -->

<svg
   xmlns:dc="http://purl.org/dc/elements/1.1/"
   xmlns:cc="http://creativecommons.org/ns#"
   xmlns:rdf="http://www.w3.org/1999/02/22-rdf-syntax-ns#"
   xmlns:svg="http://www.w3.org/2000/svg"
   xmlns="http://www.w3.org/2000/svg"
   xmlns:sodipodi="http://sodipodi.sourceforge.net/DTD/sodipodi-0.dtd"
   xmlns:inkscape="http://www.inkscape.org/namespaces/inkscape"
   version="1.1"
   id="Vrstva_1"
   x="0px"
   y="0px"
   width="50"
   height="50"
   viewBox="0 0 50 50"
   enable-background="new 0 0 55 55"
   xml:space="preserve"
   sodipodi:docname="target.svg"
   inkscape:version="0.92.4 (5da689c313, 2019-01-14)"><metadata
   id="metadata15"><rdf:RDF><cc:Work
       rdf:about=""><dc:format>image/svg+xml</dc:format><dc:type
         rdf:resource="http://purl.org/dc/dcmitype/StillImage" /><dc:title></dc:title></cc:Work></rdf:RDF></metadata><defs
   id="defs13" /><sodipodi:namedview
   pagecolor="#ffffff"
   bordercolor="#666666"
   borderopacity="1"
   objecttolerance="10"
   gridtolerance="10"
   guidetolerance="10"
   inkscape:pageopacity="0"
   inkscape:pageshadow="2"
   inkscape:window-width="1920"
   inkscape:window-height="1017"
   id="namedview11"
   showgrid="false"
   inkscape:zoom="5"
   inkscape:cx="36.652459"
   inkscape:cy="20.045458"
   inkscape:window-x="-8"
   inkscape:window-y="-8"
   inkscape:window-maximized="1"
   inkscape:current-layer="g4617" />

<g
   style="display:block"
   id="g4617"
   transform="matrix(1.1904762,0,0,1.1904762,-4.1666669,-4.2761907)"><g
     style="display:block;fill:#0a85d1;fill-opacity:1"
     id="g4680"
     transform="matrix(0.89518778,0,0,0.89518778,2.2389403,3.0985101)"><path
       id="path4669"
       d="m 48.2037,9.1569 -6.1556,6.2475 -0.0306,-0.0613 c -3.0319,3.0932 -5.2982,3.7975 -9.7082,3.3382 l -3.1543,3.185 c 1.1025,2.0212 0.8268,4.6244 -0.8575,6.3394 -2.0519,2.1131 -5.4513,2.1131 -7.5644,0.0612 -2.1131,-2.0519 -2.1438,-5.4512 -0.0613,-7.5644 1.6844,-1.715 4.2569,-2.0212 6.3088,-0.9494 l 3.1544,-3.185 c -0.5207,-4.41 0.1225,-6.6762 3.1543,-9.76933 L 39.445,0.55127 41.16,7.59502 Z M 33.657,21.9275 h 0.8269 v 0.0612 c 1.1331,0 2.1438,-0.1225 3.0931,-0.3369 0.2144,0.9494 0.3369,1.8988 0.3369,2.9094 0,7.4113 -6.0025,13.4138 -13.4137,13.4138 -7.4113,0 -13.4138,-6.0025 -13.4138,-13.4138 0,-7.4112 6.0025,-13.4137 13.4138,-13.4137 0.9187,0 1.8375,0.0918 2.695,0.2756 -0.245,1.1944 -0.3369,2.4806 -0.245,3.92 -0.7963,-0.2144 -1.5925,-0.3675 -2.45,-0.3675 -5.2675,0 -9.555,4.2875 -9.555,9.555 0,5.2675 4.2875,9.555 9.555,9.555 5.2675,0 9.555,-4.2875 9.555,-9.555 0,-0.9188 -0.1532,-1.7763 -0.3982,-2.6031 z m 8.483,-2.5419 c 0.7044,-0.5206 1.3781,-1.1331 2.0825,-1.8375 L 45.815,15.925 c 1.0413,2.6644 1.6538,5.5431 1.6538,8.575 0,12.6787 -10.2901,22.9688 -22.9688,22.9688 C 11.8212,47.4688 1.53125,37.1787 1.53125,24.5 1.53125,11.8212 11.8212,1.53125 24.5,1.53125 c 2.8787,0 5.635,0.55125 8.1769,1.53125 L 31.115,4.655 C 30.4106,5.35938 29.8287,6.06375 29.3081,6.76813 27.7769,6.37 26.1537,6.125 24.5,6.125 14.3631,6.125 6.125,14.3631 6.125,24.5 c 0,10.1369 8.2381,18.375 18.375,18.375 10.1369,0 18.375,-8.2381 18.375,-18.375 0,-1.7763 -0.2756,-3.4913 -0.735,-5.1144 z"
       inkscape:connector-curvature="0"
       style="clip-rule:evenodd;fill:#0a85d1;fill-opacity:1;fill-rule:evenodd" /></g></g></svg>