<?xml version="1.0" encoding="UTF-8" standalone="no"?>
<!-- Created with Inkscape (http://www.inkscape.org/) -->

<svg
   xmlns:dc="http://purl.org/dc/elements/1.1/"
   xmlns:cc="http://creativecommons.org/ns#"
   xmlns:rdf="http://www.w3.org/1999/02/22-rdf-syntax-ns#"
   xmlns:svg="http://www.w3.org/2000/svg"
   xmlns="http://www.w3.org/2000/svg"
   xmlns:sodipodi="http://sodipodi.sourceforge.net/DTD/sodipodi-0.dtd"
   xmlns:inkscape="http://www.inkscape.org/namespaces/inkscape"
   width="1984"
   height="1610"
   viewBox="0 0 1984 1610"
   version="1.1"
   id="svg8"
   inkscape:version="0.92.4 (5da689c313, 2019-01-14)"
   sodipodi:docname="film-tape-horizontal.svg">
  <defs
     id="defs2" />
  <sodipodi:namedview
     id="base"
     pagecolor="#ffffff"
     bordercolor="#666666"
     borderopacity="1.0"
     inkscape:pageopacity="0.0"
     inkscape:pageshadow="2"
     inkscape:zoom="0.35"
     inkscape:cx="377.36534"
     inkscape:cy="872.35429"
     inkscape:document-units="px"
     inkscape:current-layer="layer1"
     showgrid="false"
     units="px"
     inkscape:window-width="1920"
     inkscape:window-height="1017"
     inkscape:window-x="-8"
     inkscape:window-y="-8"
     inkscape:window-maximized="1" />
  <metadata
     id="metadata5">
    <rdf:RDF>
      <cc:Work
         rdf:about="">
        <dc:format>image/svg+xml</dc:format>
        <dc:type
           rdf:resource="http://purl.org/dc/dcmitype/StillImage" />
        <dc:title></dc:title>
      </cc:Work>
    </rdf:RDF>
  </metadata>
  <g
     inkscape:label="Vrstva 1"
     inkscape:groupmode="layer"
     id="layer1"
     transform="translate(0,518.75007)">
    <path
       style="fill:#000000"
       d="m -1e-5,286.24994 v -805 H 992.00002 1984 v 805 804.99996 H 992.00002 -1e-5 Z m 145.228,738.17146 c 2.6003,-1.2807 6.7652,-4.5945 9.2551,-7.3639 7.7835,-8.6571 7.6308,-7.0597 7.3038,-76.44038 l -0.2869,-60.8672 -2.3285,-4.7279 c -1.2807,-2.6004 -4.5944,-6.7652 -7.3639,-9.2552 -8.1265,-7.3064 -10.6163,-7.703 -46.0408,-7.333 -29.3459,0.3065 -30.4106,0.3869 -34.9947,2.6446 -2.6004,1.2807 -6.7652,4.5945 -9.2552,7.3639 -7.7834,8.6571 -7.6308,7.0597 -7.3037,76.4404 l 0.2868,60.86718 2.3286,4.7279 c 3.0223,6.1367 11.1101,13.3722 17.0317,15.237 3.721,1.1717 10.7783,1.4189 35.6397,1.2481 30.2217,-0.2077 31.1187,-0.2715 35.728,-2.5415 z m 220.99996,0 c 2.60036,-1.2807 6.76519,-4.5945 9.25518,-7.3639 7.78341,-8.6571 7.63078,-7.0597 7.30377,-76.44038 l -0.28688,-60.8672 -2.32852,-4.7279 c -1.28069,-2.6004 -4.59445,-6.7652 -7.36392,-9.2552 -8.12646,-7.3064 -10.61627,-7.703 -46.04082,-7.333 -29.34589,0.3065 -30.41059,0.3869 -34.99467,2.6446 -2.60036,1.2807 -6.7652,4.5945 -9.2552,7.3639 -7.7834,8.6571 -7.6308,7.0597 -7.3037,76.4404 l 0.2868,60.86718 2.3286,4.7279 c 3.0223,6.1367 11.1101,13.3722 17.03168,15.237 3.72099,1.1717 10.77834,1.4189 35.63975,1.2481 30.22162,-0.2077 31.11871,-0.2715 35.72793,-2.5415 z m 221,0 c 2.60036,-1.2807 6.76519,-4.5945 9.25518,-7.3639 7.78341,-8.6571 7.63078,-7.0597 7.30377,-76.44038 l -0.28688,-60.8672 -2.32852,-4.7279 c -1.28069,-2.6004 -4.59445,-6.7652 -7.36392,-9.2552 -8.12646,-7.3064 -10.61627,-7.703 -46.04082,-7.333 -29.34589,0.3065 -30.41059,0.3869 -34.99467,2.6446 -2.60036,1.2807 -6.76519,4.5945 -9.25518,7.3639 -7.78341,8.6571 -7.63078,7.0597 -7.30377,76.4404 l 0.28688,60.86718 2.32852,4.7279 c 3.02234,6.1367 11.11014,13.3722 17.03173,15.237 3.72099,1.1717 10.77834,1.4189 35.63975,1.2481 30.22162,-0.2077 31.11871,-0.2715 35.72793,-2.5415 z m 221,0 c 2.60036,-1.2807 6.76519,-4.5945 9.25518,-7.3639 7.78341,-8.6571 7.63078,-7.0597 7.30377,-76.44038 l -0.28688,-60.8672 -2.32852,-4.7279 c -1.28069,-2.6004 -4.59445,-6.7652 -7.36392,-9.2552 -8.12646,-7.3064 -10.61627,-7.703 -46.04082,-7.333 -29.34589,0.3065 -30.41059,0.3869 -34.99467,2.6446 -2.60036,1.2807 -6.76519,4.5945 -9.25518,7.3639 -7.78341,8.6571 -7.63078,7.0597 -7.30377,76.4404 l 0.28688,60.86718 2.32852,4.7279 c 3.02234,6.1367 11.11014,13.3722 17.03173,15.237 3.72099,1.1717 10.77834,1.4189 35.63975,1.2481 30.22162,-0.2077 31.11871,-0.2715 35.72793,-2.5415 z m 217.49335,1.3186 c 6.3654,-1.8903 14.2689,-8.8029 17.4502,-15.2622 l 2.3285,-4.7279 0.2869,-60.86718 c 0.327,-69.3807 0.4796,-67.7833 -7.3038,-76.4404 -2.49,-2.7694 -6.6548,-6.0832 -9.2552,-7.3639 -4.6563,-2.2933 -5.2198,-2.3285 -37.22788,-2.3285 -32.00814,0 -32.57155,0.035 -37.22793,2.3285 -2.60036,1.2807 -6.76519,4.5945 -9.25518,7.3639 -7.78341,8.6571 -7.63078,7.0597 -7.30377,76.4404 l 0.28688,60.86718 2.32852,4.7279 c 3.04077,6.1741 11.11618,13.3831 17.03173,15.2043 6.924,2.1318 60.72313,2.1776 67.86103,0.058 z m 221,0 c 6.3654,-1.8903 14.2689,-8.8029 17.4502,-15.2622 l 2.3285,-4.7279 0.2869,-60.86718 c 0.327,-69.3807 0.4796,-67.7833 -7.3038,-76.4404 -2.49,-2.7694 -6.6548,-6.0832 -9.2552,-7.3639 -4.5841,-2.2577 -5.6488,-2.3381 -34.9946,-2.6446 -35.4246,-0.37 -37.9144,0.027 -46.0409,7.333 -2.7694,2.49 -6.0832,6.6548 -7.3639,9.2552 l -2.3285,4.7279 -0.2869,60.8672 c -0.3236,68.65438 -0.407,67.72278 6.7964,75.90628 4.7813,5.4318 9.2061,8.3478 14.5798,9.6083 2.1509,0.5045 16.7665,0.9625 32.4792,1.0177 22.7913,0.08 29.5967,-0.2048 33.6528,-1.4094 z m 221,0 c 6.3654,-1.8903 14.2689,-8.8029 17.4502,-15.2622 l 2.3285,-4.7279 0.2869,-60.86718 c 0.327,-69.3807 0.4796,-67.7833 -7.3038,-76.4404 -2.49,-2.7694 -6.6548,-6.0832 -9.2552,-7.3639 -4.5841,-2.2577 -5.6488,-2.3381 -34.9946,-2.6446 -35.4246,-0.37 -37.9144,0.027 -46.0409,7.333 -2.7694,2.49 -6.0832,6.6548 -7.3639,9.2552 l -2.3285,4.7279 -0.2869,60.8672 c -0.3236,68.65438 -0.407,67.72278 6.7964,75.90628 4.7813,5.4318 9.2061,8.3478 14.5798,9.6083 2.1509,0.5045 16.7665,0.9625 32.4792,1.0177 22.7913,0.08 29.5967,-0.2048 33.6528,-1.4094 z m 221,0 c 6.3654,-1.8903 14.2689,-8.8029 17.4502,-15.2622 l 2.3285,-4.7279 0.2869,-60.86718 c 0.327,-69.3807 0.4796,-67.7833 -7.3038,-76.4404 -2.49,-2.7694 -6.6548,-6.0832 -9.2552,-7.3639 -4.5841,-2.2577 -5.6488,-2.3381 -34.9946,-2.6446 -35.4246,-0.37 -37.9144,0.027 -46.0409,7.333 -2.7694,2.49 -6.0832,6.6548 -7.3639,9.2552 l -2.3285,4.7279 -0.2869,60.8672 c -0.3236,68.65438 -0.407,67.72278 6.7964,75.90628 4.7813,5.4318 9.2061,8.3478 14.5798,9.6083 2.1509,0.5045 16.7665,0.9625 32.4792,1.0177 22.7913,0.08 29.5967,-0.2048 33.6528,-1.4094 z m 221,0 c 6.3654,-1.8903 14.2689,-8.8029 17.4502,-15.2622 l 2.3285,-4.7279 0.2869,-60.86718 c 0.327,-69.3807 0.4796,-67.7833 -7.3038,-76.4404 -2.49,-2.7694 -6.6548,-6.0832 -9.2552,-7.3639 -4.5841,-2.2577 -5.6488,-2.3381 -34.9946,-2.6446 -35.4246,-0.37 -37.9144,0.027 -46.0409,7.333 -2.7694,2.49 -6.0832,6.6548 -7.3639,9.2552 l -2.3285,4.7279 -0.2869,60.8672 c -0.3236,68.65438 -0.407,67.72278 6.7964,75.90628 4.7813,5.4318 9.2061,8.3478 14.5798,9.6083 2.1509,0.5045 16.7665,0.9625 32.4792,1.0177 22.7913,0.08 29.5967,-0.2048 33.6528,-1.4094 z M 1904.5,823.02552 c 10.9137,-3.7167 19.5169,-9.0232 27.3847,-16.8909 7.8677,-7.8678 13.1742,-16.471 16.8909,-27.3847 l 2.7244,-8 v -484.49998 -484.5 l -2.7244,-8 c -3.7167,-10.91367 -9.0232,-19.51694 -16.8909,-27.38467 -7.8678,-7.86774 -16.471,-13.17425 -27.3847,-16.89092 l -8,-2.72441 H 992.00002 87.49999 l -8,2.72441 c -10.9136,3.71667 -19.5169,9.02318 -27.3846,16.89092 -7.8678,7.86773 -13.1743,16.471 -16.891,27.38467 l -2.7244,8 v 484.5 484.49998 l 2.7244,8 c 3.7225,10.9307 9.03,19.5269 16.908,27.3847 10.3087,10.2822 23.4509,17.0816 36.8381,19.0591 3.0412,0.4492 410.97953,0.7581 906.52953,0.6865 L 1896.5,825.74992 Z M 141.72139,-287.25995 c 6.3654,-1.89031 14.2689,-8.80286 17.4501,-15.26218 l 2.3285,-4.72793 0.2869,-60.86722 c 0.327,-69.38071 0.4797,-67.78332 -7.3038,-76.44034 -2.4899,-2.76947 -6.6548,-6.08323 -9.2551,-7.36392 -4.5841,-2.25768 -5.6488,-2.33814 -34.9947,-2.64461 -35.4246,-0.36996 -37.9144,0.0266 -46.0408,7.33298 -2.7695,2.48999 -6.0833,6.65482 -7.3639,9.25518 l -2.3286,4.72793 -0.2868,60.86722 c -0.3236,68.65438 -0.407,67.72276 6.7964,75.90627 4.7812,5.43181 9.206,8.34782 14.5797,9.6083 2.1509,0.50452 16.7666,0.96251 32.4792,1.01776 22.7913,0.0801 29.5967,-0.20488 33.6529,-1.40944 z m 220.99997,0 c 6.36538,-1.89031 14.2689,-8.80286 17.45014,-15.26218 l 2.32852,-4.72793 0.28688,-60.86722 c 0.32701,-69.38071 0.47964,-67.78332 -7.30377,-76.44034 -2.48999,-2.76947 -6.65482,-6.08323 -9.25518,-7.36392 -4.58408,-2.25768 -5.64878,-2.33814 -34.99467,-2.64461 -35.42455,-0.36996 -37.91436,0.0266 -46.04079,7.33298 -2.7695,2.48999 -6.0833,6.65482 -7.3639,9.25518 l -2.3286,4.72793 -0.2868,60.86722 c -0.3236,68.65438 -0.407,67.72276 6.7964,75.90627 4.7812,5.43181 9.20603,8.34782 14.57972,9.6083 2.15089,0.50452 16.76653,0.96251 32.47921,1.01776 22.79131,0.0801 29.59667,-0.20488 33.65284,-1.40944 z m 221,0 c 6.36538,-1.89031 14.2689,-8.80286 17.45014,-15.26218 l 2.32852,-4.72793 0.28688,-60.86722 c 0.32701,-69.38071 0.47964,-67.78332 -7.30377,-76.44034 -2.48999,-2.76947 -6.65482,-6.08323 -9.25518,-7.36392 -4.58408,-2.25768 -5.64878,-2.33814 -34.99467,-2.64461 -35.42455,-0.36996 -37.91436,0.0266 -46.04082,7.33298 -2.76947,2.48999 -6.08323,6.65482 -7.36392,9.25518 l -2.32852,4.72793 -0.28688,60.86722 c -0.32359,68.65438 -0.407,67.72276 6.79642,75.90627 4.78126,5.43181 9.20606,8.34782 14.57975,9.6083 2.15089,0.50452 16.76653,0.96251 32.47921,1.01776 22.79131,0.0801 29.59667,-0.20488 33.65284,-1.40944 z m 221,0 c 6.36538,-1.89031 14.2689,-8.80286 17.45014,-15.26218 l 2.32852,-4.72793 0.28688,-60.86722 c 0.32701,-69.38071 0.47964,-67.78332 -7.30377,-76.44034 -2.48999,-2.76947 -6.65482,-6.08323 -9.25518,-7.36392 -4.58408,-2.25768 -5.64878,-2.33814 -34.99467,-2.64461 -35.42455,-0.36996 -37.91436,0.0266 -46.04082,7.33298 -2.76947,2.48999 -6.08323,6.65482 -7.36392,9.25518 l -2.32852,4.72793 -0.28688,60.86722 c -0.32359,68.65438 -0.407,67.72276 6.79642,75.90627 4.78126,5.43181 9.20606,8.34782 14.57975,9.6083 2.15089,0.50452 16.76653,0.96251 32.47921,1.01776 22.79131,0.0801 29.59667,-0.20488 33.65284,-1.40944 z m 224.50654,-1.31863 c 2.6004,-1.28069 6.7652,-4.59445 9.2552,-7.36392 7.7834,-8.65702 7.6308,-7.05963 7.3038,-76.44034 l -0.2869,-60.86722 -2.3285,-4.72793 c -3.1813,-6.45932 -11.0848,-13.37187 -17.4502,-15.26218 -7.3782,-2.1911 -60.0644,-2.1911 -67.44262,0 -6.36538,1.89031 -14.2689,8.80286 -17.45014,15.26218 l -2.32852,4.72793 -0.28688,60.86722 c -0.32359,68.65438 -0.407,67.72276 6.79642,75.90627 4.76087,5.40864 9.17672,8.32857 14.57975,9.6407 2.15089,0.52234 17.63571,0.86784 34.41071,0.76776 29.72948,-0.17735 30.61938,-0.24077 35.22788,-2.51047 z m 221,0 c 2.6004,-1.28069 6.7652,-4.59445 9.2552,-7.36392 7.7834,-8.65702 7.6308,-7.05963 7.3038,-76.44034 l -0.2869,-60.86722 -2.3285,-4.72793 c -1.2807,-2.60036 -4.5945,-6.76519 -7.3639,-9.25518 -8.1265,-7.30638 -10.6163,-7.70294 -46.0409,-7.33298 -29.3458,0.30647 -30.4105,0.38693 -34.9946,2.64461 -2.6004,1.28069 -6.7652,4.59445 -9.2552,7.36392 -7.7834,8.65702 -7.6308,7.05963 -7.3038,76.44034 l 0.2869,60.86722 2.3285,4.72793 c 3.0224,6.13668 11.1102,13.37218 17.0318,15.23693 3.7209,1.17176 10.7783,1.41891 35.6397,1.24811 30.2216,-0.20762 31.1187,-0.27144 35.7279,-2.54149 z m 221,0 c 2.6004,-1.28069 6.7652,-4.59445 9.2552,-7.36392 7.7834,-8.65702 7.6308,-7.05963 7.3038,-76.44034 l -0.2869,-60.86722 -2.3285,-4.72793 c -1.2807,-2.60036 -4.5945,-6.76519 -7.3639,-9.25518 -8.1265,-7.30638 -10.6163,-7.70294 -46.0409,-7.33298 -29.3458,0.30647 -30.4105,0.38693 -34.9946,2.64461 -2.6004,1.28069 -6.7652,4.59445 -9.2552,7.36392 -7.7834,8.65702 -7.6308,7.05963 -7.3038,76.44034 l 0.2869,60.86722 2.3285,4.72793 c 3.0224,6.13668 11.1102,13.37218 17.0318,15.23693 3.7209,1.17176 10.7783,1.41891 35.6397,1.24811 30.2216,-0.20762 31.1187,-0.27144 35.7279,-2.54149 z m 221,0 c 2.6004,-1.28069 6.7652,-4.59445 9.2552,-7.36392 7.7834,-8.65702 7.6308,-7.05963 7.3038,-76.44034 l -0.2869,-60.86722 -2.3285,-4.72793 c -1.2807,-2.60036 -4.5945,-6.76519 -7.3639,-9.25518 -8.1265,-7.30638 -10.6163,-7.70294 -46.0409,-7.33298 -29.3458,0.30647 -30.4105,0.38693 -34.9946,2.64461 -2.6004,1.28069 -6.7652,4.59445 -9.2552,7.36392 -7.7834,8.65702 -7.6308,7.05963 -7.3038,76.44034 l 0.2869,60.86722 2.3285,4.72793 c 3.0224,6.13668 11.1102,13.37218 17.0318,15.23693 3.7209,1.17176 10.7783,1.41891 35.6397,1.24811 30.2216,-0.20762 31.1187,-0.27144 35.7279,-2.54149 z m 221,0 c 2.6004,-1.28069 6.7652,-4.59445 9.2552,-7.36392 7.7834,-8.65702 7.6308,-7.05963 7.3038,-76.44034 l -0.2869,-60.86722 -2.3285,-4.72793 c -1.2807,-2.60036 -4.5945,-6.76519 -7.3639,-9.25518 -8.1265,-7.30638 -10.6163,-7.70294 -46.0409,-7.33298 -29.3458,0.30647 -30.4105,0.38693 -34.9946,2.64461 -2.6004,1.28069 -6.7652,4.59445 -9.2552,7.36392 -7.7834,8.65702 -7.6308,7.05963 -7.3038,76.44034 l 0.2869,60.86722 2.3285,4.72793 c 3.0224,6.13668 11.1102,13.37218 17.0318,15.23693 3.7209,1.17176 10.7783,1.41891 35.6397,1.24811 30.2216,-0.20762 31.1187,-0.27144 35.7279,-2.54149 z"
       id="path827"
       inkscape:connector-curvature="0" />
  </g>
</svg>
