<?xml version="1.0" encoding="UTF-8" standalone="no"?>
<!-- Created with Inkscape (http://www.inkscape.org/) -->

<svg
   xmlns:dc="http://purl.org/dc/elements/1.1/"
   xmlns:cc="http://creativecommons.org/ns#"
   xmlns:rdf="http://www.w3.org/1999/02/22-rdf-syntax-ns#"
   xmlns:svg="http://www.w3.org/2000/svg"
   xmlns="http://www.w3.org/2000/svg"
   xmlns:sodipodi="http://sodipodi.sourceforge.net/DTD/sodipodi-0.dtd"
   xmlns:inkscape="http://www.inkscape.org/namespaces/inkscape"
   width="2450"
   height="1144"
   viewBox="0 0 2450 1144"
   version="1.1"
   id="svg8"
   inkscape:version="0.92.4 (5da689c313, 2019-01-14)"
   sodipodi:docname="film-tape-vertical.svg">
  <defs
     id="defs2" />
  <sodipodi:namedview
     id="base"
     pagecolor="#ffffff"
     bordercolor="#666666"
     borderopacity="1.0"
     inkscape:pageopacity="0.0"
     inkscape:pageshadow="2"
     inkscape:zoom="0.35"
     inkscape:cx="377.36534"
     inkscape:cy="872.35429"
     inkscape:document-units="px"
     inkscape:current-layer="layer1"
     showgrid="false"
     units="px"
     inkscape:window-width="1920"
     inkscape:window-height="1017"
     inkscape:window-x="-8"
     inkscape:window-y="-8"
     inkscape:window-maximized="1" />
  <metadata
     id="metadata5">
    <rdf:RDF>
      <cc:Work
         rdf:about="">
        <dc:format>image/svg+xml</dc:format>
        <dc:type
           rdf:resource="http://purl.org/dc/dcmitype/StillImage" />
        <dc:title></dc:title>
      </cc:Work>
    </rdf:RDF>
  </metadata>
  <g
     inkscape:label="Vrstva 1"
     inkscape:groupmode="layer"
     id="layer1"
     transform="translate(0,52.75007)">
    <path
       style="fill:#000000"
       d="m 0,519.24993 v -572 h 1225 1225 v 572 571.99997 H 1225 0 Z m 2137.5,536.77557 c 10.9137,-3.7167 19.5169,-9.0232 27.3847,-16.8909 7.8677,-7.8678 13.1742,-16.471 16.8909,-27.3847 l 2.7244,-8 v -484.49997 -484.5 l -2.7244,-8 c -3.7167,-10.91367 -9.0232,-19.51694 -16.8909,-27.38468 -7.8678,-7.86773 -16.471,-13.17424 -27.3847,-16.89091 l -8,-2.72441 H 1225 320.5 l -8,2.72441 c -10.91367,3.71667 -19.51694,9.02318 -27.38467,16.89092 -7.86774,7.86773 -13.17425,16.471 -16.89092,27.38467 l -2.72441,8 v 484.5 484.49997 l 2.72441,8 c 3.72247,10.9307 9.02999,19.5269 16.90793,27.3847 10.30868,10.2822 23.45089,17.0816 36.83808,19.0591 3.04127,0.4492 410.97958,0.7581 906.52958,0.6865 l 901,-0.1303 z M 212.72134,1027.74 c 6.36538,-1.8903 14.2689,-8.8029 17.45014,-15.2622 2.25768,-4.5841 2.33814,-5.6488 2.64461,-34.99457 0.36996,-35.42459 -0.0266,-37.9144 -7.33298,-46.04086 -2.48999,-2.76947 -6.65482,-6.08323 -9.25518,-7.36392 L 211.5,921.74993 150.6328,921.46305 c -69.3807,-0.32701 -67.7833,-0.47964 -76.4404,7.30377 -2.7694,2.48999 -6.0832,6.65482 -7.3639,9.25518 -2.2577,4.58408 -2.3381,5.64878 -2.6446,34.99463 -0.3642,34.86887 0.082,37.84607 6.8256,45.50677 4.7813,5.4318 9.2061,8.3478 14.5798,9.6083 2.1509,0.5045 30.4915,0.9625 62.9792,1.0177 49.9749,0.085 59.85124,-0.1319 64.15284,-1.4094 z m 2156.50656,-1.3186 c 2.6004,-1.2807 6.7652,-4.5945 9.2552,-7.3639 7.3064,-8.1265 7.703,-10.6163 7.333,-46.04087 -0.3065,-29.34585 -0.3869,-30.41055 -2.6446,-34.99463 -1.2807,-2.60036 -4.5945,-6.76519 -7.3639,-9.25518 -8.6571,-7.78341 -7.0597,-7.63078 -76.4404,-7.30377 l -60.8672,0.28688 -4.7279,2.32852 c -2.6004,1.28069 -6.7652,4.59445 -9.2552,7.36392 -7.3064,8.12646 -7.703,10.61627 -7.333,46.04086 0.3065,29.34577 0.3869,30.41047 2.6446,34.99457 3.0303,6.1529 11.1128,13.3769 17.0318,15.2229 3.8681,1.2064 14.8675,1.414 66.1397,1.2481 l 61.5,-0.1989 z M 212.72134,799.74004 c 6.36538,-1.89031 14.2689,-8.80286 17.45014,-15.26218 2.25768,-4.58408 2.33814,-5.64878 2.64461,-34.99467 0.36996,-35.42455 -0.0266,-37.91436 -7.33298,-46.04082 -2.48999,-2.76947 -6.65482,-6.08323 -9.25518,-7.36392 L 211.5,693.74993 150.6328,693.46305 c -69.3807,-0.32701 -67.7833,-0.47964 -76.4404,7.30377 -2.7694,2.48999 -6.0832,6.65482 -7.3639,9.25518 -2.2577,4.58408 -2.3381,5.64878 -2.6446,34.99467 -0.3642,34.86882 0.082,37.84605 6.8256,45.50675 4.7813,5.43181 9.2061,8.34782 14.5798,9.6083 2.1509,0.50452 30.4915,0.96251 62.9792,1.01776 49.9749,0.085 59.85124,-0.132 64.15284,-1.40944 z m 2156.50656,-1.31863 c 2.6004,-1.28069 6.7652,-4.59445 9.2552,-7.36392 7.3064,-8.12646 7.703,-10.61627 7.333,-46.04082 -0.3065,-29.34589 -0.3869,-30.41059 -2.6446,-34.99467 -1.2807,-2.60036 -4.5945,-6.76519 -7.3639,-9.25518 -8.6571,-7.78341 -7.0597,-7.63078 -76.4404,-7.30377 l -60.8672,0.28688 -4.7279,2.32852 c -2.6004,1.28069 -6.7652,4.59445 -9.2552,7.36392 -7.3064,8.12646 -7.703,10.61627 -7.333,46.04082 0.3065,29.34589 0.3869,30.41059 2.6446,34.99467 3.0303,6.15282 11.1128,13.37688 17.0318,15.22288 3.8681,1.20638 14.8675,1.41395 66.1397,1.24811 l 61.5,-0.19892 z m -2152.99997,-228 c 2.60036,-1.28069 6.76519,-4.59445 9.25518,-7.36392 7.30638,-8.12646 7.70294,-10.61627 7.33298,-46.04082 -0.30647,-29.34589 -0.38693,-30.41059 -2.64461,-34.99467 -1.28069,-2.60036 -4.59445,-6.76519 -7.36392,-9.25518 -8.65702,-7.78341 -7.05963,-7.63078 -76.44036,-7.30377 l -60.8672,0.28688 -4.7279,2.32852 c -2.6004,1.28069 -6.7652,4.59445 -9.2552,7.36392 -7.3064,8.12646 -7.703,10.61627 -7.333,46.04082 0.3065,29.34589 0.3869,30.41059 2.6446,34.99467 3.0303,6.15282 11.1128,13.37688 17.0317,15.22288 3.8682,1.20638 14.8676,1.41395 66.1398,1.24811 l 61.5,-0.19892 z m 2149.49337,1.31863 c 6.3654,-1.89031 14.2689,-8.80286 17.4502,-15.26218 2.2577,-4.58408 2.3381,-5.64878 2.6446,-34.99467 0.37,-35.42455 -0.027,-37.91436 -7.333,-46.04082 -2.49,-2.76947 -6.6548,-6.08323 -9.2552,-7.36392 l -4.7279,-2.32852 -60.8672,-0.28688 c -69.3807,-0.32701 -67.7833,-0.47964 -76.4404,7.30377 -2.7694,2.48999 -6.0832,6.65482 -7.3639,9.25518 -2.2577,4.58408 -2.3381,5.64878 -2.6446,34.99467 -0.3641,34.86882 0.082,37.84605 6.8256,45.50675 4.7813,5.43181 9.2061,8.34782 14.5798,9.6083 2.1509,0.50452 30.4915,0.96251 62.9792,1.01776 49.9749,0.085 59.8512,-0.132 64.1528,-1.40944 z M 216.22793,342.42141 c 2.60036,-1.28069 6.76519,-4.59445 9.25518,-7.36392 7.30638,-8.12646 7.70294,-10.61627 7.33298,-46.04082 -0.30647,-29.34589 -0.38693,-30.41059 -2.64461,-34.99467 -1.28069,-2.60036 -4.59445,-6.76519 -7.36392,-9.25518 -8.65702,-7.78341 -7.05963,-7.63078 -76.44036,-7.30377 l -60.8672,0.28688 -4.7279,2.32852 c -2.6004,1.28069 -6.7652,4.59445 -9.2552,7.36392 -7.3064,8.12646 -7.703,10.61627 -7.333,46.04082 0.3065,29.34589 0.3869,30.41059 2.6446,34.99467 3.0303,6.15282 11.1128,13.37688 17.0317,15.22288 3.8682,1.20638 14.8676,1.41395 66.1398,1.24811 l 61.5,-0.19892 z m 2149.49337,1.31863 c 6.3654,-1.89031 14.2689,-8.80286 17.4502,-15.26218 2.2577,-4.58408 2.3381,-5.64878 2.6446,-34.99467 0.37,-35.42455 -0.027,-37.91436 -7.333,-46.04082 -2.49,-2.76947 -6.6548,-6.08323 -9.2552,-7.36392 l -4.7279,-2.32852 -60.8672,-0.28688 c -69.3807,-0.32701 -67.7833,-0.47964 -76.4404,7.30377 -2.7694,2.48999 -6.0832,6.65482 -7.3639,9.25518 -2.2577,4.58408 -2.3381,5.64878 -2.6446,34.99467 -0.3641,34.86882 0.082,37.84605 6.8256,45.50675 4.7813,5.43181 9.2061,8.34782 14.5798,9.6083 2.1509,0.50452 30.4915,0.96251 62.9792,1.01776 49.9749,0.085 59.8512,-0.132 64.1528,-1.40944 z M 216.22793,114.42141 c 2.60036,-1.28069 6.76519,-4.59445 9.25518,-7.36392 7.30638,-8.12646 7.70294,-10.61627 7.33298,-46.04082 -0.30647,-29.34589 -0.38693,-30.41058 -2.64461,-34.99467 -1.28069,-2.60036 -4.59445,-6.76519 -7.36392,-9.25518 C 214.15054,8.98341 215.74793,9.13604 146.3672,9.46305 L 85.5,9.74993 80.7721,12.07845 c -2.6004,1.28069 -6.7652,4.59445 -9.2552,7.36392 -7.3064,8.12646 -7.703,10.61627 -7.333,46.04082 0.3065,29.34589 0.3869,30.41059 2.6446,34.99467 3.0303,6.15282 11.1128,13.37688 17.0317,15.22288 3.8682,1.20638 14.8676,1.41395 66.1398,1.24811 l 61.5,-0.19892 z m 2149.49337,1.31863 c 6.3654,-1.89031 14.2689,-8.80286 17.4502,-15.26218 2.2577,-4.58408 2.3381,-5.64878 2.6446,-34.99467 0.37,-35.42455 -0.027,-37.91436 -7.333,-46.04082 -2.49,-2.76947 -6.6548,-6.08323 -9.2552,-7.36392 L 2364.5,9.74993 2303.6328,9.46305 c -69.3807,-0.32701 -67.7833,-0.47964 -76.4404,7.30377 -2.7694,2.48999 -6.0832,6.65482 -7.3639,9.25518 -2.2577,4.58409 -2.3381,5.64878 -2.6446,34.99467 -0.3641,34.86882 0.082,37.84605 6.8256,45.50675 4.7813,5.43181 9.2061,8.34782 14.5798,9.6083 2.1509,0.50452 30.4915,0.96251 62.9792,1.01776 49.9749,0.085 59.8512,-0.132 64.1528,-1.40944 z"
       id="path840"
       inkscape:connector-curvature="0"
       inkscape:export-xdpi="96"
       inkscape:export-ydpi="96" />
  </g>
</svg>
