<?xml version="1.0" encoding="UTF-8" standalone="no"?>
<!-- Generator: Adobe Illustrator 16.0.3, SVG Export Plug-In . SVG Version: 6.00 Build 0)  -->

<svg
   xmlns:dc="http://purl.org/dc/elements/1.1/"
   xmlns:cc="http://creativecommons.org/ns#"
   xmlns:rdf="http://www.w3.org/1999/02/22-rdf-syntax-ns#"
   xmlns:svg="http://www.w3.org/2000/svg"
   xmlns="http://www.w3.org/2000/svg"
   xmlns:sodipodi="http://sodipodi.sourceforge.net/DTD/sodipodi-0.dtd"
   xmlns:inkscape="http://www.inkscape.org/namespaces/inkscape"
   version="1.1"
   id="Vrstva_1"
   x="0px"
   y="0px"
   width="50"
   height="50"
   viewBox="0 0 50 50"
   enable-background="new 0 0 55 55"
   xml:space="preserve"
   sodipodi:docname="Logo Youtube 01.svg"
   inkscape:version="0.92.4 (5da689c313, 2019-01-14)"><metadata
   id="metadata15"><rdf:RDF><cc:Work
       rdf:about=""><dc:format>image/svg+xml</dc:format><dc:type
         rdf:resource="http://purl.org/dc/dcmitype/StillImage" /><dc:title></dc:title></cc:Work></rdf:RDF></metadata><defs
   id="defs13" /><sodipodi:namedview
   pagecolor="#ffffff"
   bordercolor="#666666"
   borderopacity="1"
   objecttolerance="10"
   gridtolerance="10"
   guidetolerance="10"
   inkscape:pageopacity="0"
   inkscape:pageshadow="2"
   inkscape:window-width="1920"
   inkscape:window-height="1017"
   id="namedview11"
   showgrid="false"
   inkscape:zoom="4.2909091"
   inkscape:cx="27.5"
   inkscape:cy="27.5"
   inkscape:window-x="-8"
   inkscape:window-y="-8"
   inkscape:window-maximized="1"
   inkscape:current-layer="Vrstva_1" />

<g
   id="g1121"
   transform="matrix(0.98039216,0,0,0.98039216,-1.9607844,-1.9607844)">
	<rect
   id="rect1115"
   height="51"
   width="51"
   y="2"
   x="2"
   style="fill:#e6362d" />
	<g
   id="g1119">
		<path
   id="path1117"
   d="m 38.228,20.532 c 0.508,0.738 0.809,1.554 0.9,2.446 0.215,2.922 0.215,5.83 0,8.721 -0.092,0.83 -0.416,1.646 -0.969,2.445 -0.555,0.801 -1.23,1.277 -2.031,1.432 -5.291,0.399 -11.045,0.399 -17.258,0 -0.801,-0.123 -1.477,-0.584 -2.031,-1.385 -0.553,-0.8 -0.875,-1.631 -0.969,-2.492 -0.215,-2.83 -0.215,-5.66 0,-8.49 0.094,-0.861 0.416,-1.691 0.969,-2.492 0.555,-0.8 1.23,-1.246 2.031,-1.338 5.105,-0.432 10.859,-0.432 17.258,0 0.893,0.031 1.592,0.415 2.1,1.153 z m -6.299,6.876 -7.383,-4.246 v 8.491 z"
   inkscape:connector-curvature="0"
   style="fill:#ffffff" />
	</g>
</g></svg>