<?xml version="1.0" encoding="UTF-8" standalone="no"?>
<!-- Generator: Adobe Illustrator 16.0.3, SVG Export Plug-In . SVG Version: 6.00 Build 0)  -->

<svg
   xmlns:dc="http://purl.org/dc/elements/1.1/"
   xmlns:cc="http://creativecommons.org/ns#"
   xmlns:rdf="http://www.w3.org/1999/02/22-rdf-syntax-ns#"
   xmlns:svg="http://www.w3.org/2000/svg"
   xmlns="http://www.w3.org/2000/svg"
   xmlns:sodipodi="http://sodipodi.sourceforge.net/DTD/sodipodi-0.dtd"
   xmlns:inkscape="http://www.inkscape.org/namespaces/inkscape"
   version="1.1"
   id="Vrstva_1"
   x="0px"
   y="0px"
   width="50"
   height="50"
   viewBox="0 0 50 50"
   enable-background="new 0 0 55 55"
   xml:space="preserve"
   sodipodi:docname="Logo Twitter 01.svg"
   inkscape:version="0.92.4 (5da689c313, 2019-01-14)"><metadata
   id="metadata15"><rdf:RDF><cc:Work
       rdf:about=""><dc:format>image/svg+xml</dc:format><dc:type
         rdf:resource="http://purl.org/dc/dcmitype/StillImage" /><dc:title></dc:title></cc:Work></rdf:RDF></metadata><defs
   id="defs13" /><sodipodi:namedview
   pagecolor="#ffffff"
   bordercolor="#666666"
   borderopacity="1"
   objecttolerance="10"
   gridtolerance="10"
   guidetolerance="10"
   inkscape:pageopacity="0"
   inkscape:pageshadow="2"
   inkscape:window-width="1920"
   inkscape:window-height="1017"
   id="namedview11"
   showgrid="false"
   inkscape:zoom="4.2909091"
   inkscape:cx="27.5"
   inkscape:cy="27.5"
   inkscape:window-x="-8"
   inkscape:window-y="-8"
   inkscape:window-maximized="1"
   inkscape:current-layer="Vrstva_1" />

<g
   id="g1045"
   transform="matrix(0.98039216,0,0,0.98039216,-1.9607844,-1.9607844)">
	<rect
   id="rect1039"
   height="51"
   width="51"
   y="2"
   x="2"
   style="fill:#6cacde" />
	<g
   id="g1043">
		<path
   id="path1041"
   d="m 38.423,21.674 c 0.994,-0.127 1.955,-0.4 2.885,-0.816 -0.673,1.025 -1.507,1.906 -2.5,2.643 0,0.193 0,0.402 0,0.625 0,1.699 -0.32,3.389 -0.961,5.072 -0.642,1.682 -1.547,3.221 -2.716,4.615 -1.171,1.393 -2.685,2.523 -4.542,3.389 -1.859,0.865 -3.91,1.297 -6.153,1.297 -2.788,0 -5.368,-0.752 -7.739,-2.26 0.416,0.033 0.817,0.049 1.202,0.049 2.339,0 4.422,-0.721 6.249,-2.162 -1.09,0 -2.06,-0.33 -2.908,-0.986 -0.85,-0.656 -1.451,-1.498 -1.803,-2.523 0.32,0.064 0.641,0.096 0.961,0.096 0.449,0 0.896,-0.047 1.346,-0.145 -1.186,-0.256 -2.155,-0.848 -2.908,-1.777 -0.753,-0.929 -1.129,-1.986 -1.129,-3.174 V 25.52 c 0.705,0.418 1.457,0.625 2.26,0.625 -1.508,-0.992 -2.26,-2.387 -2.26,-4.182 0,-0.93 0.24,-1.779 0.721,-2.547 1.25,1.57 2.779,2.82 4.591,3.748 1.81,0.93 3.741,1.443 5.792,1.539 -0.096,-0.385 -0.145,-0.77 -0.145,-1.154 0,-1.377 0.497,-2.563 1.49,-3.557 0.993,-0.992 2.18,-1.49 3.558,-1.49 1.474,0 2.708,0.529 3.701,1.586 1.153,-0.225 2.227,-0.625 3.221,-1.201 -0.386,1.185 -1.123,2.115 -2.213,2.787 z"
   inkscape:connector-curvature="0"
   style="fill:#ffffff" />
	</g>
</g></svg>