<?xml version="1.0" encoding="UTF-8" standalone="no"?>
<!-- Generator: Adobe Illustrator 16.0.3, SVG Export Plug-In . SVG Version: 6.00 Build 0)  -->

<svg
   xmlns:dc="http://purl.org/dc/elements/1.1/"
   xmlns:cc="http://creativecommons.org/ns#"
   xmlns:rdf="http://www.w3.org/1999/02/22-rdf-syntax-ns#"
   xmlns:svg="http://www.w3.org/2000/svg"
   xmlns="http://www.w3.org/2000/svg"
   xmlns:sodipodi="http://sodipodi.sourceforge.net/DTD/sodipodi-0.dtd"
   xmlns:inkscape="http://www.inkscape.org/namespaces/inkscape"
   version="1.1"
   id="Vrstva_1"
   x="0px"
   y="0px"
   width="50"
   height="50"
   viewBox="0 0 50 50"
   enable-background="new 0 0 55 55"
   xml:space="preserve"
   sodipodi:docname="Logo Pinterest 01.svg"
   inkscape:version="0.92.4 (5da689c313, 2019-01-14)"><metadata
   id="metadata15"><rdf:RDF><cc:Work
       rdf:about=""><dc:format>image/svg+xml</dc:format><dc:type
         rdf:resource="http://purl.org/dc/dcmitype/StillImage" /><dc:title></dc:title></cc:Work></rdf:RDF></metadata><defs
   id="defs13" /><sodipodi:namedview
   pagecolor="#ffffff"
   bordercolor="#666666"
   borderopacity="1"
   objecttolerance="10"
   gridtolerance="10"
   guidetolerance="10"
   inkscape:pageopacity="0"
   inkscape:pageshadow="2"
   inkscape:window-width="1920"
   inkscape:window-height="1017"
   id="namedview11"
   showgrid="false"
   inkscape:zoom="4.2909091"
   inkscape:cx="27.5"
   inkscape:cy="27.5"
   inkscape:window-x="-8"
   inkscape:window-y="-8"
   inkscape:window-maximized="1"
   inkscape:current-layer="Vrstva_1" />

<g
   id="g1007"
   transform="matrix(0.98039216,0,0,0.98039216,-1.9607844,-1.9607844)">
	<rect
   id="rect1001"
   height="51"
   width="51"
   y="2"
   x="2"
   style="fill:#ce2e2d" />
	<g
   id="g1005">
		<path
   id="path1003"
   d="m 15.689,24.588 c 0.076,-2.688 1.113,-4.984 3.111,-6.887 1.998,-1.903 4.285,-2.987 6.859,-3.256 3.227,-0.385 6.08,0.163 8.559,1.643 2.479,1.479 3.91,3.621 4.295,6.426 0.307,2.229 0.133,4.381 -0.52,6.455 -0.654,2.075 -1.777,3.766 -3.371,5.072 -1.596,1.307 -3.449,1.864 -5.563,1.672 -0.424,-0.039 -0.816,-0.125 -1.182,-0.26 -0.366,-0.135 -0.662,-0.269 -0.893,-0.404 -0.23,-0.133 -0.539,-0.336 -0.922,-0.604 -0.385,-0.269 -0.693,-0.461 -0.924,-0.576 -0.5,2.498 -1.066,4.554 -1.699,6.167 -0.635,1.613 -1.586,2.882 -2.854,3.804 -0.115,-1.422 -0.172,-2.593 -0.172,-3.516 0,-0.923 0.105,-1.997 0.316,-3.228 0.211,-1.229 0.422,-2.248 0.633,-3.055 0.211,-0.807 0.471,-1.787 0.779,-2.939 0.307,-1.152 0.537,-2.113 0.691,-2.882 -0.385,-0.729 -0.576,-1.585 -0.576,-2.565 0,-0.979 0.162,-1.863 0.49,-2.65 0.326,-0.787 0.844,-1.393 1.555,-1.816 0.711,-0.422 1.49,-0.479 2.336,-0.172 0.807,0.308 1.248,0.893 1.324,1.758 0.078,0.864 -0.057,1.807 -0.402,2.824 -0.345,1.017 -0.674,2.027 -0.98,3.025 -0.309,1 -0.346,1.883 -0.115,2.651 0.231,0.768 0.846,1.249 1.844,1.44 1.346,0.27 2.545,-0.115 3.604,-1.152 1.057,-1.037 1.787,-2.314 2.189,-3.832 0.404,-1.518 0.51,-3.113 0.316,-4.785 -0.191,-1.671 -0.711,-2.947 -1.555,-3.832 -1,-0.999 -2.172,-1.652 -3.516,-1.96 -1.346,-0.307 -2.652,-0.249 -3.92,0.173 -1.268,0.424 -2.432,1.037 -3.486,1.845 -1.059,0.807 -1.855,1.873 -2.393,3.198 -0.539,1.326 -0.691,2.7 -0.461,4.121 0.037,0.385 0.172,0.778 0.402,1.182 0.23,0.404 0.434,0.74 0.605,1.009 0.174,0.27 0.26,0.644 0.26,1.124 0,0.48 -0.172,1.009 -0.52,1.585 -2.915,-0.655 -4.298,-2.92 -4.144,-6.803 z"
   inkscape:connector-curvature="0"
   style="fill:#ffffff" />
	</g>
</g></svg>